<?xml version="1.0" standalone="no"?>
<!DOCTYPE svg PUBLIC "-//W3C//DTD SVG 20010904//EN"
 "http://www.w3.org/TR/2001/REC-SVG-20010904/DTD/svg10.dtd">
<svg version="1.0" xmlns="http://www.w3.org/2000/svg"
 width="400.000000pt" height="400.000000pt" viewBox="0 0 400.000000 400.000000"
 preserveAspectRatio="xMidYMid meet">
<metadata>
Created by potrace 1.14, written by Peter Selinger 2001-2017
</metadata>
<g transform="translate(0.000000,400.000000) scale(0.100000,-0.100000)"
fill="#000000" stroke="none">
<path d="M0 2040 l0 -1960 138 0 c75 0 438 -5 807 -10 1014 -14 2129 -25 2515
-25 280 0 350 3 370 14 l25 14 -30 13 -30 13 36 1 c21 0 39 6 42 13 3 7 6 112
6 233 1 120 4 293 6 384 2 91 6 521 10 955 3 435 8 916 10 1070 3 154 7 477
11 718 l6 439 -28 30 c-19 19 -23 27 -11 23 10 -4 17 -3 17 4 0 11 -13 15 -37
12 -6 -1 -14 3 -18 9 -4 6 -636 10 -1926 10 l-1919 0 0 -1960z m3388 151 c3
-8 -1 -12 -9 -9 -7 2 -15 10 -17 17 -3 8 1 12 9 9 7 -2 15 -10 17 -17z"/>
</g>
</svg>
